<?xml version="1.0" encoding="utf-8"?>
<!-- Generator: Adobe Illustrator 26.0.1, SVG Export Plug-In . SVG Version: 6.00 Build 0)  -->
<svg version="1.1" id="图层_1" xmlns="http://www.w3.org/2000/svg" xmlns:xlink="http://www.w3.org/1999/xlink" x="0px" y="0px"
	 viewBox="0 0 218.3 51" style="enable-background:new 0 0 218.3 51;" xml:space="preserve">
<style type="text/css">
	.st0{fill:#50CD89;}
	.st1{fill:#FFFFFF;}
	.st2{fill:#009EF7;}
	.st3{fill:#FFFFFF;stroke:#009EF7;stroke-miterlimit:10;}
	.st4{fill:none;}
	.st5{fill:#D1EDDE;}
	.st6{font-family:'HGLB_CNKI';}
	.st7{font-size:32.5913px;}
</style>
<path class="st0" d="M25.1,7.6l25.2-0.4c1.4,0,2.4,1.5,2,3.1l-1.5,5.2c-0.4,1.7-1.8,2.7-3.4,2.8l-25.1,0.2c-1.4,0-2.4-1.5-2-3.1
	l1.5-5.1C22.2,8.8,23.6,7.6,25.1,7.6z"/>
<path class="st1" d="M18.8,33.3L18.6,2.8c0-1.7,0-2.8-0.1-2.8c0,0-0.1,1.9-0.1,4.4v22.1c0,1.1,0,2.1,0,3.2l0.1,16.9
	c0,1.5,0,2.5,0.1,2.5h0.1c0,0,0-0.9,0.1-2.5v-6.4C18.8,38,18.8,35.5,18.8,33.3z"/>
<path class="st0" d="M22.6,8.1h4.9c1.5,0,2.6,1.8,2.2,3.6l-8,31.8c-0.5,2-2,3.2-3.7,3.2h-4.9c-1.5,0-2.6-1.8-2.2-3.6l8-31.7
	C19.4,9.4,20.9,8.1,22.6,8.1z"/>
<path class="st2" d="M7.7,2.8l25.2-0.5c1.4,0,2.4,1.5,2,3.1l-1.5,5.2c-0.4,1.7-1.8,2.7-3.4,2.8L4.8,13.7c-1.4,0-2.4-1.5-2-3.1
	l1.5-5.1C4.8,3.9,6.1,2.8,7.7,2.8z"/>
<path class="st3" d="M29.4,33L45,28.2c0.9-0.3,1.5-1,1.4-1.9c0-1.2-1-2.2-2.3-2.2l-11.4-0.4c-0.6,0-1.1,0-1.6,0.2l-8.7,2.6
	c-0.8,0.2-1.3,0.9-1.3,1.7v2.4c0,0.8,0.5,1.4,1.3,1.6l3.3,1C26.9,33.3,28.2,33.3,29.4,33z"/>
<path class="st3" d="M18.2,6.2h-5.3c-0.3,0-0.6,0.2-0.8,0.6C11.9,7.3,12,7.9,12.4,8l3.1,1.6c0.2,0.1,0.3,0.1,0.5,0.1h2.9
	c0.3,0,0.5-0.2,0.7-0.5l0.5-1c0.2-0.3,0.1-0.7-0.1-0.8l-0.7-0.8C19,6.4,18.6,6.2,18.2,6.2z"/>
<path class="st3" d="M20.2,12l1.2,5.2c0.1,0.3,0.4,0.5,0.8,0.6c0.5,0.1,1.1-0.1,1.1-0.5l0.9-3.4c0-0.2,0.1-0.3,0-0.5l-0.7-2.9
	c0-0.3-0.3-0.5-0.7-0.5l-1.1-0.2c-0.4-0.1-0.7,0-0.8,0.3L20.2,11C20.3,11.2,20.2,11.6,20.2,12z"/>
<path class="st3" d="M25.4,8.1l3.8-3.7c0.2-0.2,0.3-0.6,0.1-1c-0.2-0.5-0.6-0.9-1-0.7l-3.4,1c-0.2,0.1-0.3,0.1-0.4,0.3l-2.1,2
	c-0.2,0.2-0.2,0.5-0.1,0.9l0.4,1c0.1,0.3,0.4,0.6,0.6,0.6l1.1,0.1C24.7,8.5,25.1,8.4,25.4,8.1z"/>
<rect x="73.7" y="7.3" class="st4" width="2.2" height="5"/>
<text transform="matrix(1.0827 0 0 1 67.1426 35.9443)" class="st5 st6 st7">腾风电力</text>
</svg>
