<?xml version="1.0" encoding="utf-8"?>
<!-- Generator: Adobe Illustrator 26.0.1, SVG Export Plug-In . SVG Version: 6.00 Build 0)  -->
<svg version="1.1" id="图层_1" xmlns="http://www.w3.org/2000/svg" xmlns:xlink="http://www.w3.org/1999/xlink" x="0px" y="0px"
	 viewBox="0 0 818.4 529.1" style="enable-background:new 0 0 818.4 529.1;" xml:space="preserve">
<style type="text/css">
	.st0{opacity:0;fill:#FFFFFF;}
	.st1{fill:#CACACA;}
	.st2{fill:#00B0FF;}
	.st3{fill:#FFFFFF;}
	.st4{fill:#3F3D56;}
	.st5{fill:#F0F0F0;}
	.st6{fill:#A0616A;}
	.st7{fill:#2F2E41;}
	.st8{fill:#575A89;}
	.st9{opacity:0.1;enable-background:new    ;}
	.st10{fill:#E6E6E6;}
</style>
<path class="st0" d="M816.4,304.6H296.9V8.3h519.5V304.6z"/>
<path class="st1" d="M818.4,306.6H294.9V6.3h523.5V306.6z M298.9,302.6h515.5V10.3H298.9V302.6z"/>
<circle class="st2" cx="564.6" cy="163.3" r="55.5"/>
<path class="st3" d="M575.3,167.2c-4.5-5.2-8.7-13.5-11.2-20.2c-2.5,6.7-6.7,15-11.2,20.2l10-3.6V186h2.4v-22.4L575.3,167.2z"/>
<polygon class="st1" points="577.3,18.9 481.6,18.9 481.6,0 577.3,0 586.7,9.4 "/>
<polygon class="st4" points="482.8,18.9 387.2,18.9 387.2,0 482.8,0 492.3,9.4 "/>
<polygon class="st2" points="389.5,18.9 293.9,18.9 293.9,0 389.5,0 399,9.4 "/>
<path class="st5" d="M16.8,527.4l0.3-1.3c0.1-0.3,6.8-29.2,28.8-45.4c22.1-16.2,51.6-13.9,51.9-13.9l1.3,0.1l-0.3,1.3
	c-0.1,0.3-6.8,29.2-28.8,45.4c-22.1,16.2-51.6,13.9-51.9,13.9L16.8,527.4z M47.3,482.6c-18.6,13.7-26,36.8-27.5,42.6
	c6,0.2,30.3,0.2,48.9-13.5c18.6-13.7,25.9-36.8,27.5-42.6C90.2,468.8,65.9,468.9,47.3,482.6z"/>
<path class="st5" d="M55.6,489.3c-10.7,25-37.1,37.8-37.1,37.8s-9.1-27.9,1.6-52.9s37.1-37.8,37.1-37.8S66.3,464.3,55.6,489.3z"/>
<path class="st6" d="M329.6,211.7c-3.7-5.4-11.1-6.7-16.4-3c-0.6,0.4-1.1,0.8-1.6,1.3l-24.9-10.4l-10,13.6l35.4,14.3
	c4.9,4.3,12.4,3.9,16.8-1C332.4,222.2,332.7,216.2,329.6,211.7L329.6,211.7z"/>
<polygon class="st6" points="281.3,512.7 296.5,512.7 297.9,458.7 281.3,454.1 "/>
<path class="st7" d="M277.4,507.8l29.9,0h0c10.5,0,19.1,8.5,19.1,19.1v0.6l-49,0L277.4,507.8z"/>
<polygon class="st6" points="167,512.7 182.2,512.7 189.5,454.1 167,454.1 "/>
<path class="st7" d="M163.2,507.8l29.9,0h0c10.5,0,19.1,8.5,19.1,19.1v0.6l-49,0L163.2,507.8z"/>
<path class="st8" d="M258.4,175.1l50.2,28.5l-8.9,22.7c0,0-31-14.9-33-13.9S258.4,175.1,258.4,175.1z"/>
<path class="st7" d="M201.8,260.7l-11.5,108.8L155.9,495l28.6,4.6L267,324.9L252.1,231l-25.2-9.2L201.8,260.7z"/>
<path class="st7" d="M183.4,259.6c0,0,28.6,16.8,38,49.5c10,35,28.5,89.1,28.5,89.1l25.2,102.5l30.9-8l-36.6-233.1l-30.9-26.3
	l-40.1-4.6L183.4,259.6z"/>
<circle class="st6" cx="254" cy="54.1" r="26.3"/>
<path class="st8" d="M256.4,105c0,0-18.9-20.8-33.8-20.8c-4.8,0-38.1,37.1-39.1,63.9l-10.7,118.4c0,0,103.1,5.7,104.2,1.1
	S256.4,105,256.4,105z"/>
<path class="st7" d="M240.9,65.6c2.1-0.1,4.2,0.6,6.3,0.9c7.8,0.8,15-4.2,17-11.8c0.1-1,0.4-1.9,0.9-2.8c1.2-1.9,3.8-2.2,6-1.8
	s4.2,1.4,6.4,1.6c3.5,0,6.7-1.8,8.5-4.8c1.7-3,2.4-6.4,2.1-9.9l-1.6,1.7c-0.7-1.4-0.9-3-0.7-4.5c-1.8-0.5-3.6,0-5,1.3
	c-1.4,0.2-0.4-2.7-1.4-3.7c-0.5-0.3-1.1-0.4-1.7-0.3c-3.1,0-5.5-2.3-8-4.2c-4.2-3.3-9.1-5.5-14.3-6.5c-3.5-0.8-7.1-0.6-10.4,0.5
	c-2.7,1.2-5,2.9-7,5c-5.1,4.9-9.7,10.8-11.8,17.6c-1.7,5.6-1.8,11.5-0.1,17.1c0.9,2.9,3.5,12.9,7.3,13.1
	C237.8,74.2,234.9,65.9,240.9,65.6z"/>
<polygon class="st9" points="234,133.6 207.1,173.1 198.4,265 "/>
<path class="st6" d="M194.9,300.7c4.4-4.8,4.1-12.3-0.7-16.7c-0.5-0.5-1.1-0.9-1.7-1.3l4.7-26.6l-15.5-6.8l-6.1,37.6
	c-3.1,5.8-1,13,4.7,16.1C185.2,305.8,191.2,304.8,194.9,300.7L194.9,300.7z"/>
<path class="st8" d="M209.6,96.4L182,185.7c0,0-10.2,57-5.7,66.1s-4.4,27.2-4.4,27.2l26.3,2.3l12.8-93.6l22.7-71.3
	C233.8,116.4,242.8,90.6,209.6,96.4z"/>
<rect id="e8310426-6c31-4dda-9e6e-1765924c3d10" x="304.7" y="180.1" transform="matrix(0.204 -0.979 0.979 0.204 65.7239 524.8842)" class="st1" width="101.8" height="83.8"/>
<rect id="bd122e35-a1c1-49ee-8743-926b8ce798e5" x="306.4" y="182.2" transform="matrix(0.204 -0.979 0.979 0.204 65.4135 524.2844)" class="st3" width="97.5" height="79.5"/>
<g id="b64708cb-dce5-48be-ac10-94f92b9c889b">
	
		<rect id="e09379fd-2478-48f1-b81f-f54c4e3c9c7a" x="351.9" y="172.8" transform="matrix(0.204 -0.979 0.979 0.204 102.2984 491.4395)" class="st10" width="2.9" height="20"/>
	
		<rect id="b4bf12c6-107b-4d74-a31b-e84a4ab6c7a8" x="360.3" y="172.8" transform="matrix(0.204 -0.979 0.979 0.204 98.8955 507.8723)" class="st2" width="2.9" height="40.6"/>
	
		<rect id="bbdf33c8-f624-40e0-a78f-3d0040dad156" x="354" y="185.1" transform="matrix(0.204 -0.979 0.979 0.204 87.1642 507.0999)" class="st10" width="2.9" height="29.8"/>
	
		<rect id="b44a9e07-be4b-414d-8ba3-c4e4a982d953" x="341.9" y="201.4" transform="matrix(0.204 -0.979 0.979 0.204 71.2383 500.3453)" class="st10" width="2.9" height="9.9"/>
	
		<rect id="f17ee27a-91b7-41cc-9a5a-26a98e12cdc2" x="347.1" y="204.1" transform="matrix(0.204 -0.979 0.979 0.204 65.7708 513.2602)" class="st2" width="2.9" height="24.1"/>
	
		<rect id="f9a19cfe-d4ee-44fa-ab4d-3d6547ba1e46" x="343.3" y="214.2" transform="matrix(0.204 -0.979 0.979 0.204 54.9306 515.9304)" class="st10" width="2.9" height="20"/>
	
		<rect id="b9542e79-7d8c-492f-96e6-2c189a246911" x="351.7" y="214.2" transform="matrix(0.204 -0.979 0.979 0.204 51.5282 532.3629)" class="st2" width="2.9" height="40.6"/>
	
		<rect id="f3fa939e-a9e2-4fac-b505-074c9ee61dc4" x="345.4" y="226.4" transform="matrix(0.204 -0.979 0.979 0.204 39.7969 531.5905)" class="st10" width="2.9" height="29.8"/>
	
		<rect id="a1de6102-8b84-4497-ba07-467d8fb2348b" x="333.3" y="242.8" transform="matrix(0.204 -0.979 0.979 0.204 23.8705 524.8362)" class="st10" width="2.9" height="9.9"/>
	
		<rect id="be3007b6-c1ef-41ba-b96c-a7356ec98b0f" x="338.5" y="245.5" transform="matrix(0.204 -0.979 0.979 0.204 18.4029 537.7512)" class="st10" width="2.9" height="24.1"/>
</g>
<path class="st1" d="M382,529.1H1c-0.6,0-1-0.4-1-1s0.4-1,1-1h381c0.6,0,1,0.4,1,1S382.6,529.1,382,529.1z"/>
</svg>
