<?xml version="1.0" standalone="no"?><!DOCTYPE svg PUBLIC "-//W3C//DTD SVG 1.1//EN" "http://www.w3.org/Graphics/SVG/1.1/DTD/svg11.dtd"><svg t="1688567515971" class="icon" viewBox="0 0 1024 1024" version="1.1" xmlns="http://www.w3.org/2000/svg" p-id="5786" xmlns:xlink="http://www.w3.org/1999/xlink" width="200" height="200"><path d="M425.5 210.5c33 0 60-27 60-60s-27-60-60-60-60 27-60 60c0 33.1 27 60 60 60z" fill="#5100A1" p-id="5787"></path><path d="M430.4 149.7m-60 0a60 60 0 1 0 120 0 60 60 0 1 0-120 0Z" fill="#5104A3" p-id="5788"></path><path d="M435.2 149m-60 0a60 60 0 1 0 120 0 60 60 0 1 0-120 0Z" fill="#5108A4" p-id="5789"></path><path d="M440 148.2m-60 0a60 60 0 1 0 120 0 60 60 0 1 0-120 0Z" fill="#510CA6" p-id="5790"></path><path d="M444.9 147.4m-60 0a60 60 0 1 0 120 0 60 60 0 1 0-120 0Z" fill="#5211A7" p-id="5791"></path><path d="M449.7 146.6m-60 0a60 60 0 1 0 120 0 60 60 0 1 0-120 0Z" fill="#5215A9" p-id="5792"></path><path d="M454.5 145.8m-60 0a60 60 0 1 0 120 0 60 60 0 1 0-120 0Z" fill="#5219AA" p-id="5793"></path><path d="M459.4 145m-60 0a60 60 0 1 0 120 0 60 60 0 1 0-120 0Z" fill="#521DAC" p-id="5794"></path><path d="M464.2 144.2m-60 0a60 60 0 1 0 120 0 60 60 0 1 0-120 0Z" fill="#5221AD" p-id="5795"></path><path d="M469.1 143.4m-60 0a60 60 0 1 0 120 0 60 60 0 1 0-120 0Z" fill="#5225AF" p-id="5796"></path><path d="M473.9 142.7m-60 0a60 60 0 1 0 120 0 60 60 0 1 0-120 0Z" fill="#5229B0" p-id="5797"></path><path d="M478.7 141.9m-60 0a60 60 0 1 0 120 0 60 60 0 1 0-120 0Z" fill="#522DB2" p-id="5798"></path><path d="M483.6 141.1m-60 0a60 60 0 1 0 120 0 60 60 0 1 0-120 0Z" fill="#5332B3" p-id="5799"></path><path d="M488.4 140.3m-60 0a60 60 0 1 0 120 0 60 60 0 1 0-120 0Z" fill="#5336B5" p-id="5800"></path><path d="M493.2 139.5m-60 0a60 60 0 1 0 120 0 60 60 0 1 0-120 0Z" fill="#533AB7" p-id="5801"></path><path d="M498.1 138.7m-60 0a60 60 0 1 0 120 0 60 60 0 1 0-120 0Z" fill="#533EB8" p-id="5802"></path><path d="M502.9 137.9m-60 0a60 60 0 1 0 120 0 60 60 0 1 0-120 0Z" fill="#5342BA" p-id="5803"></path><path d="M507.8 137.1m-60 0a60 60 0 1 0 120 0 60 60 0 1 0-120 0Z" fill="#5346BB" p-id="5804"></path><path d="M512.6 136.4m-60 0a60 60 0 1 0 120 0 60 60 0 1 0-120 0Z" fill="#534ABD" p-id="5805"></path><path d="M517.4 135.6m-60 0a60 60 0 1 0 120 0 60 60 0 1 0-120 0Z" fill="#534EBE" p-id="5806"></path><path d="M522.3 134.8m-60 0a60 60 0 1 0 120 0 60 60 0 1 0-120 0Z" fill="#5453C0" p-id="5807"></path><path d="M527.1 134m-60 0a60 60 0 1 0 120 0 60 60 0 1 0-120 0Z" fill="#5457C1" p-id="5808"></path><path d="M531.9 133.2m-60 0a60 60 0 1 0 120 0 60 60 0 1 0-120 0Z" fill="#545BC3" p-id="5809"></path><path d="M536.8 132.4m-60 0a60 60 0 1 0 120 0 60 60 0 1 0-120 0Z" fill="#545FC4" p-id="5810"></path><path d="M541.6 131.6m-60 0a60 60 0 1 0 120 0 60 60 0 1 0-120 0Z" fill="#5463C6" p-id="5811"></path><path d="M546.5 130.9m-60 0a60 60 0 1 0 120 0 60 60 0 1 0-120 0Z" fill="#5467C8" p-id="5812"></path><path d="M551.3 130.1m-60 0a60 60 0 1 0 120 0 60 60 0 1 0-120 0Z" fill="#546BC9" p-id="5813"></path><path d="M556.1 129.3m-60 0a60 60 0 1 0 120 0 60 60 0 1 0-120 0Z" fill="#5570CB" p-id="5814"></path><path d="M561 128.5m-60 0a60 60 0 1 0 120 0 60 60 0 1 0-120 0Z" fill="#5574CC" p-id="5815"></path><path d="M565.8 127.7m-60 0a60 60 0 1 0 120 0 60 60 0 1 0-120 0Z" fill="#5578CE" p-id="5816"></path><path d="M570.6 126.9m-60 0a60 60 0 1 0 120 0 60 60 0 1 0-120 0Z" fill="#557CCF" p-id="5817"></path><path d="M575.5 126.1m-60 0a60 60 0 1 0 120 0 60 60 0 1 0-120 0Z" fill="#5580D1" p-id="5818"></path><path d="M580.3 125.3m-60 0a60 60 0 1 0 120 0 60 60 0 1 0-120 0Z" fill="#5584D2" p-id="5819"></path><path d="M585.2 124.6m-60 0a60 60 0 1 0 120 0 60 60 0 1 0-120 0Z" fill="#5588D4" p-id="5820"></path><path d="M590 123.8m-60 0a60 60 0 1 0 120 0 60 60 0 1 0-120 0Z" fill="#558CD5" p-id="5821"></path><path d="M594.8 123m-60 0a60 60 0 1 0 120 0 60 60 0 1 0-120 0Z" fill="#5691D7" p-id="5822"></path><path d="M598.5 123.6m-60 0a60 60 0 1 0 120 0 60 60 0 1 0-120 0Z" fill="#5695D8" p-id="5823"></path><path d="M598.5 128.5m-60 0a60 60 0 1 0 120 0 60 60 0 1 0-120 0Z" fill="#5699DA" p-id="5824"></path><path d="M598.5 133.4m-60 0a60 60 0 1 0 120 0 60 60 0 1 0-120 0Z" fill="#569DDC" p-id="5825"></path><path d="M598.5 138.3m-60 0a60 60 0 1 0 120 0 60 60 0 1 0-120 0Z" fill="#56A1DD" p-id="5826"></path><path d="M598.5 143.2m-60 0a60 60 0 1 0 120 0 60 60 0 1 0-120 0Z" fill="#56A5DF" p-id="5827"></path><path d="M598.5 148.1m-60 0a60 60 0 1 0 120 0 60 60 0 1 0-120 0Z" fill="#56A9E0" p-id="5828"></path><path d="M598.5 153m-60 0a60 60 0 1 0 120 0 60 60 0 1 0-120 0Z" fill="#57AEE2" p-id="5829"></path><path d="M598.5 157.9m-60 0a60 60 0 1 0 120 0 60 60 0 1 0-120 0Z" fill="#57B2E3" p-id="5830"></path><path d="M598.5 162.8m-60 0a60 60 0 1 0 120 0 60 60 0 1 0-120 0Z" fill="#57B6E5" p-id="5831"></path><path d="M598.5 167.7m-60 0a60 60 0 1 0 120 0 60 60 0 1 0-120 0Z" fill="#57BAE6" p-id="5832"></path><path d="M598.5 172.6m-60 0a60 60 0 1 0 120 0 60 60 0 1 0-120 0Z" fill="#57BEE8" p-id="5833"></path><path d="M598.5 177.5m-60 0a60 60 0 1 0 120 0 60 60 0 1 0-120 0Z" fill="#57C2E9" p-id="5834"></path><path d="M598.5 182.4m-60 0a60 60 0 1 0 120 0 60 60 0 1 0-120 0Z" fill="#57C6EB" p-id="5835"></path><path d="M598.5 187.3m-60 0a60 60 0 1 0 120 0 60 60 0 1 0-120 0Z" fill="#57CAED" p-id="5836"></path><path d="M598.5 192.2m-60 0a60 60 0 1 0 120 0 60 60 0 1 0-120 0Z" fill="#58CFEE" p-id="5837"></path><path d="M598.5 197.1m-60 0a60 60 0 1 0 120 0 60 60 0 1 0-120 0Z" fill="#58D3F0" p-id="5838"></path><path d="M598.5 202m-60 0a60 60 0 1 0 120 0 60 60 0 1 0-120 0Z" fill="#58D7F1" p-id="5839"></path><path d="M598.5 206.9m-60 0a60 60 0 1 0 120 0 60 60 0 1 0-120 0Z" fill="#58DBF3" p-id="5840"></path><path d="M598.5 211.8m-60 0a60 60 0 1 0 120 0 60 60 0 1 0-120 0Z" fill="#58DFF4" p-id="5841"></path><path d="M598.5 216.7m-60 0a60 60 0 1 0 120 0 60 60 0 1 0-120 0Z" fill="#58E3F6" p-id="5842"></path><path d="M598.5 221.6m-60 0a60 60 0 1 0 120 0 60 60 0 1 0-120 0Z" fill="#58E7F7" p-id="5843"></path><path d="M598.5 226.5m-60 0a60 60 0 1 0 120 0 60 60 0 1 0-120 0Z" fill="#58EBF9" p-id="5844"></path><path d="M598.5 231.4m-60 0a60 60 0 1 0 120 0 60 60 0 1 0-120 0Z" fill="#59F0FA" p-id="5845"></path><path d="M598.5 236.3m-60 0a60 60 0 1 0 120 0 60 60 0 1 0-120 0Z" fill="#59F4FC" p-id="5846"></path><path d="M598.5 241.2m-60 0a60 60 0 1 0 120 0 60 60 0 1 0-120 0Z" fill="#59F8FD" p-id="5847"></path><path d="M598.5 306.1c33 0 60-27 60-60s-27-60-60-60-60 27-60 60c0 33.1 26.9 60 60 60z" fill="#59FCFF" p-id="5848"></path><path d="M598.5 250.8m-60 0a60 60 0 1 0 120 0 60 60 0 1 0-120 0Z" fill="#59FBFF" p-id="5849"></path><path d="M598.5 255.4m-60 0a60 60 0 1 0 120 0 60 60 0 1 0-120 0Z" fill="#5AF9FF" p-id="5850"></path><path d="M598.5 260.1m-60 0a60 60 0 1 0 120 0 60 60 0 1 0-120 0Z" fill="#5AF8FF" p-id="5851"></path><path d="M598.5 264.7m-60 0a60 60 0 1 0 120 0 60 60 0 1 0-120 0Z" fill="#5AF7FF" p-id="5852"></path><path d="M598.5 269.4m-60 0a60 60 0 1 0 120 0 60 60 0 1 0-120 0Z" fill="#5BF6FF" p-id="5853"></path><path d="M598.5 274m-60 0a60 60 0 1 0 120 0 60 60 0 1 0-120 0Z" fill="#5BF4FF" p-id="5854"></path><path d="M598.5 278.6m-60 0a60 60 0 1 0 120 0 60 60 0 1 0-120 0Z" fill="#5BF3FF" p-id="5855"></path><path d="M598.5 283.3m-60 0a60 60 0 1 0 120 0 60 60 0 1 0-120 0Z" fill="#5CF2FF" p-id="5856"></path><path d="M598.5 287.9m-60 0a60 60 0 1 0 120 0 60 60 0 1 0-120 0Z" fill="#5CF0FF" p-id="5857"></path><path d="M598.5 292.6m-60 0a60 60 0 1 0 120 0 60 60 0 1 0-120 0Z" fill="#5CEFFF" p-id="5858"></path><path d="M598.5 297.2m-60 0a60 60 0 1 0 120 0 60 60 0 1 0-120 0Z" fill="#5DEEFF" p-id="5859"></path><path d="M598.5 301.9m-60 0a60 60 0 1 0 120 0 60 60 0 1 0-120 0Z" fill="#5DEDFF" p-id="5860"></path><path d="M598.5 306.5m-60 0a60 60 0 1 0 120 0 60 60 0 1 0-120 0Z" fill="#5DEBFF" p-id="5861"></path><path d="M598.5 311.2m-60 0a60 60 0 1 0 120 0 60 60 0 1 0-120 0Z" fill="#5EEAFF" p-id="5862"></path><path d="M598.5 315.8m-60 0a60 60 0 1 0 120 0 60 60 0 1 0-120 0Z" fill="#5EE9FF" p-id="5863"></path><path d="M598.5 320.4m-60 0a60 60 0 1 0 120 0 60 60 0 1 0-120 0Z" fill="#5EE7FF" p-id="5864"></path><path d="M598.5 325.1m-60 0a60 60 0 1 0 120 0 60 60 0 1 0-120 0Z" fill="#5FE6FF" p-id="5865"></path><path d="M598.5 329.7m-60 0a60 60 0 1 0 120 0 60 60 0 1 0-120 0Z" fill="#5FE5FF" p-id="5866"></path><path d="M598.5 334.4m-60 0a60 60 0 1 0 120 0 60 60 0 1 0-120 0Z" fill="#5FE4FF" p-id="5867"></path><path d="M598.5 339m-60 0a60 60 0 1 0 120 0 60 60 0 1 0-120 0Z" fill="#60E2FF" p-id="5868"></path><path d="M598.5 343.7m-60 0a60 60 0 1 0 120 0 60 60 0 1 0-120 0Z" fill="#60E1FF" p-id="5869"></path><path d="M598.5 348.3m-60 0a60 60 0 1 0 120 0 60 60 0 1 0-120 0Z" fill="#60E0FF" p-id="5870"></path><path d="M598.5 353m-60 0a60 60 0 1 0 120 0 60 60 0 1 0-120 0Z" fill="#61DEFF" p-id="5871"></path><path d="M598.5 357.6m-60 0a60 60 0 1 0 120 0 60 60 0 1 0-120 0Z" fill="#61DDFF" p-id="5872"></path><path d="M598.5 362.2m-60 0a60 60 0 1 0 120 0 60 60 0 1 0-120 0Z" fill="#61DCFF" p-id="5873"></path><path d="M598.5 366.9m-60 0a60 60 0 1 0 120 0 60 60 0 1 0-120 0Z" fill="#61DBFF" p-id="5874"></path><path d="M598.5 371.5m-60 0a60 60 0 1 0 120 0 60 60 0 1 0-120 0Z" fill="#62D9FF" p-id="5875"></path><path d="M598.5 376.2m-60 0a60 60 0 1 0 120 0 60 60 0 1 0-120 0Z" fill="#62D8FF" p-id="5876"></path><path d="M598.5 380.8m-60 0a60 60 0 1 0 120 0 60 60 0 1 0-120 0Z" fill="#62D7FF" p-id="5877"></path><path d="M598.5 385.5m-60 0a60 60 0 1 0 120 0 60 60 0 1 0-120 0Z" fill="#63D5FF" p-id="5878"></path><path d="M598.5 390.1m-60 0a60 60 0 1 0 120 0 60 60 0 1 0-120 0Z" fill="#63D4FF" p-id="5879"></path><path d="M598.5 394.8m-60 0a60 60 0 1 0 120 0 60 60 0 1 0-120 0Z" fill="#63D3FF" p-id="5880"></path><path d="M598.5 399.4m-60 0a60 60 0 1 0 120 0 60 60 0 1 0-120 0Z" fill="#64D2FF" p-id="5881"></path><path d="M598.5 404m-60 0a60 60 0 1 0 120 0 60 60 0 1 0-120 0Z" fill="#64D0FF" p-id="5882"></path><path d="M598.5 408.7m-60 0a60 60 0 1 0 120 0 60 60 0 1 0-120 0Z" fill="#64CFFF" p-id="5883"></path><path d="M598.5 413.3m-60 0a60 60 0 1 0 120 0 60 60 0 1 0-120 0Z" fill="#65CEFF" p-id="5884"></path><path d="M598.5 418m-60 0a60 60 0 1 0 120 0 60 60 0 1 0-120 0Z" fill="#65CDFF" p-id="5885"></path><path d="M598.5 422.6m-60 0a60 60 0 1 0 120 0 60 60 0 1 0-120 0Z" fill="#65CBFF" p-id="5886"></path><path d="M598.5 427.3m-60 0a60 60 0 1 0 120 0 60 60 0 1 0-120 0Z" fill="#66CAFF" p-id="5887"></path><path d="M598.5 431.9m-60 0a60 60 0 1 0 120 0 60 60 0 1 0-120 0Z" fill="#66C9FF" p-id="5888"></path><path d="M598.5 436.6m-60 0a60 60 0 1 0 120 0 60 60 0 1 0-120 0Z" fill="#66C7FF" p-id="5889"></path><path d="M598.5 441.2m-60 0a60 60 0 1 0 120 0 60 60 0 1 0-120 0Z" fill="#67C6FF" p-id="5890"></path><path d="M598.5 445.8m-60 0a60 60 0 1 0 120 0 60 60 0 1 0-120 0Z" fill="#67C5FF" p-id="5891"></path><path d="M598.5 450.5m-60 0a60 60 0 1 0 120 0 60 60 0 1 0-120 0Z" fill="#67C4FF" p-id="5892"></path><path d="M598.5 455.1m-60 0a60 60 0 1 0 120 0 60 60 0 1 0-120 0Z" fill="#68C2FF" p-id="5893"></path><path d="M598.5 459.8m-60 0a60 60 0 1 0 120 0 60 60 0 1 0-120 0Z" fill="#68C1FF" p-id="5894"></path><path d="M598.5 464.4m-60 0a60 60 0 1 0 120 0 60 60 0 1 0-120 0Z" fill="#68C0FF" p-id="5895"></path><path d="M598.5 469.1m-60 0a60 60 0 1 0 120 0 60 60 0 1 0-120 0Z" fill="#69BEFF" p-id="5896"></path><path d="M598.5 473.7m-60 0a60 60 0 1 0 120 0 60 60 0 1 0-120 0Z" fill="#69BDFF" p-id="5897"></path><path d="M598.5 478.4m-60 0a60 60 0 1 0 120 0 60 60 0 1 0-120 0Z" fill="#69BCFF" p-id="5898"></path><path d="M598.5 483m-60 0a60 60 0 1 0 120 0 60 60 0 1 0-120 0Z" fill="#6ABBFF" p-id="5899"></path><path d="M598.5 487.7m-60 0a60 60 0 1 0 120 0 60 60 0 1 0-120 0Z" fill="#6AB9FF" p-id="5900"></path><path d="M598.5 492.3m-60 0a60 60 0 1 0 120 0 60 60 0 1 0-120 0Z" fill="#6AB8FF" p-id="5901"></path><path d="M598.5 496.9m-60 0a60 60 0 1 0 120 0 60 60 0 1 0-120 0Z" fill="#6BB7FF" p-id="5902"></path><path d="M598.5 501.6m-60 0a60 60 0 1 0 120 0 60 60 0 1 0-120 0Z" fill="#6BB5FF" p-id="5903"></path><path d="M598.5 506.2m-60 0a60 60 0 1 0 120 0 60 60 0 1 0-120 0Z" fill="#6BB4FF" p-id="5904"></path><path d="M598.5 510.9m-60 0a60 60 0 1 0 120 0 60 60 0 1 0-120 0Z" fill="#6CB3FF" p-id="5905"></path><path d="M598.5 515.5m-60 0a60 60 0 1 0 120 0 60 60 0 1 0-120 0Z" fill="#6CB2FF" p-id="5906"></path><path d="M598.5 520.2m-60 0a60 60 0 1 0 120 0 60 60 0 1 0-120 0Z" fill="#6CB0FF" p-id="5907"></path><path d="M598.5 524.8m-60 0a60 60 0 1 0 120 0 60 60 0 1 0-120 0Z" fill="#6DAFFF" p-id="5908"></path><path d="M598.5 529.5m-60 0a60 60 0 1 0 120 0 60 60 0 1 0-120 0Z" fill="#6DAEFF" p-id="5909"></path><path d="M598.5 534.1m-60 0a60 60 0 1 0 120 0 60 60 0 1 0-120 0Z" fill="#6DACFF" p-id="5910"></path><path d="M598.5 538.7m-60 0a60 60 0 1 0 120 0 60 60 0 1 0-120 0Z" fill="#6EABFF" p-id="5911"></path><path d="M598.5 543.4m-60 0a60 60 0 1 0 120 0 60 60 0 1 0-120 0Z" fill="#6EAAFF" p-id="5912"></path><path d="M598.5 548m-60 0a60 60 0 1 0 120 0 60 60 0 1 0-120 0Z" fill="#6EA9FF" p-id="5913"></path><path d="M598.5 552.7m-60 0a60 60 0 1 0 120 0 60 60 0 1 0-120 0Z" fill="#6FA7FF" p-id="5914"></path><path d="M598.5 557.3m-60 0a60 60 0 1 0 120 0 60 60 0 1 0-120 0Z" fill="#6FA6FF" p-id="5915"></path><path d="M598.5 562m-60 0a60 60 0 1 0 120 0 60 60 0 1 0-120 0Z" fill="#6FA5FF" p-id="5916"></path><path d="M598.5 566.6m-60 0a60 60 0 1 0 120 0 60 60 0 1 0-120 0Z" fill="#70A3FF" p-id="5917"></path><path d="M598.5 571.3m-60 0a60 60 0 1 0 120 0 60 60 0 1 0-120 0Z" fill="#70A2FF" p-id="5918"></path><path d="M598.5 575.9m-60 0a60 60 0 1 0 120 0 60 60 0 1 0-120 0Z" fill="#70A1FF" p-id="5919"></path><path d="M598.5 580.5m-60 0a60 60 0 1 0 120 0 60 60 0 1 0-120 0Z" fill="#70A0FF" p-id="5920"></path><path d="M598.5 585.2m-60 0a60 60 0 1 0 120 0 60 60 0 1 0-120 0Z" fill="#719EFF" p-id="5921"></path><path d="M598.5 589.8m-60 0a60 60 0 1 0 120 0 60 60 0 1 0-120 0Z" fill="#719DFF" p-id="5922"></path><path d="M598.5 594.5m-60 0a60 60 0 1 0 120 0 60 60 0 1 0-120 0Z" fill="#719CFF" p-id="5923"></path><path d="M598.5 599.1m-60 0a60 60 0 1 0 120 0 60 60 0 1 0-120 0Z" fill="#729AFF" p-id="5924"></path><path d="M598.5 603.8m-60 0a60 60 0 1 0 120 0 60 60 0 1 0-120 0Z" fill="#7299FF" p-id="5925"></path><path d="M598.5 608.4m-60 0a60 60 0 1 0 120 0 60 60 0 1 0-120 0Z" fill="#7298FF" p-id="5926"></path><path d="M598.5 613.1m-60 0a60 60 0 1 0 120 0 60 60 0 1 0-120 0Z" fill="#7397FF" p-id="5927"></path><path d="M598.5 617.7m-60 0a60 60 0 1 0 120 0 60 60 0 1 0-120 0Z" fill="#7395FF" p-id="5928"></path><path d="M598.5 622.3m-60 0a60 60 0 1 0 120 0 60 60 0 1 0-120 0Z" fill="#7394FF" p-id="5929"></path><path d="M598.5 627m-60 0a60 60 0 1 0 120 0 60 60 0 1 0-120 0Z" fill="#7493FF" p-id="5930"></path><path d="M598.5 631.6m-60 0a60 60 0 1 0 120 0 60 60 0 1 0-120 0Z" fill="#7491FF" p-id="5931"></path><path d="M598.5 636.3m-60 0a60 60 0 1 0 120 0 60 60 0 1 0-120 0Z" fill="#7490FF" p-id="5932"></path><path d="M598.5 640.9m-60 0a60 60 0 1 0 120 0 60 60 0 1 0-120 0Z" fill="#758FFF" p-id="5933"></path><path d="M598.5 645.6m-60 0a60 60 0 1 0 120 0 60 60 0 1 0-120 0Z" fill="#758EFF" p-id="5934"></path><path d="M598.5 650.2m-60 0a60 60 0 1 0 120 0 60 60 0 1 0-120 0Z" fill="#758CFF" p-id="5935"></path><path d="M598.5 654.9m-60 0a60 60 0 1 0 120 0 60 60 0 1 0-120 0Z" fill="#768BFF" p-id="5936"></path><path d="M598.5 659.5m-60 0a60 60 0 1 0 120 0 60 60 0 1 0-120 0Z" fill="#768AFF" p-id="5937"></path><path d="M598.5 664.1m-60 0a60 60 0 1 0 120 0 60 60 0 1 0-120 0Z" fill="#7688FF" p-id="5938"></path><path d="M598.5 668.8m-60 0a60 60 0 1 0 120 0 60 60 0 1 0-120 0Z" fill="#7787FF" p-id="5939"></path><path d="M598.5 673.4m-60 0a60 60 0 1 0 120 0 60 60 0 1 0-120 0Z" fill="#7786FF" p-id="5940"></path><path d="M598.5 678.1m-60 0a60 60 0 1 0 120 0 60 60 0 1 0-120 0Z" fill="#7785FF" p-id="5941"></path><path d="M598.5 682.7m-60 0a60 60 0 1 0 120 0 60 60 0 1 0-120 0Z" fill="#7883FF" p-id="5942"></path><path d="M598.5 687.4m-60 0a60 60 0 1 0 120 0 60 60 0 1 0-120 0Z" fill="#7882FF" p-id="5943"></path><path d="M598.5 692m-60 0a60 60 0 1 0 120 0 60 60 0 1 0-120 0Z" fill="#7881FF" p-id="5944"></path><path d="M598.5 696.7m-60 0a60 60 0 1 0 120 0 60 60 0 1 0-120 0Z" fill="#797FFF" p-id="5945"></path><path d="M598.5 701.3m-60 0a60 60 0 1 0 120 0 60 60 0 1 0-120 0Z" fill="#797EFF" p-id="5946"></path><path d="M598.5 705.9m-60 0a60 60 0 1 0 120 0 60 60 0 1 0-120 0Z" fill="#797DFF" p-id="5947"></path><path d="M598.5 710.6m-60 0a60 60 0 1 0 120 0 60 60 0 1 0-120 0Z" fill="#7A7CFF" p-id="5948"></path><path d="M598.5 715.2m-60 0a60 60 0 1 0 120 0 60 60 0 1 0-120 0Z" fill="#7A7AFF" p-id="5949"></path><path d="M598.5 719.9m-60 0a60 60 0 1 0 120 0 60 60 0 1 0-120 0Z" fill="#7A79FF" p-id="5950"></path><path d="M598.5 724.5m-60 0a60 60 0 1 0 120 0 60 60 0 1 0-120 0Z" fill="#7B78FF" p-id="5951"></path><path d="M598.5 729.2m-60 0a60 60 0 1 0 120 0 60 60 0 1 0-120 0Z" fill="#7B76FF" p-id="5952"></path><path d="M598.5 733.8m-60 0a60 60 0 1 0 120 0 60 60 0 1 0-120 0Z" fill="#7B75FF" p-id="5953"></path><path d="M598.5 738.5m-60 0a60 60 0 1 0 120 0 60 60 0 1 0-120 0Z" fill="#7C74FF" p-id="5954"></path><path d="M598.5 743.1m-60 0a60 60 0 1 0 120 0 60 60 0 1 0-120 0Z" fill="#7C73FF" p-id="5955"></path><path d="M598.5 747.7m-60 0a60 60 0 1 0 120 0 60 60 0 1 0-120 0Z" fill="#7C71FF" p-id="5956"></path><path d="M598.5 752.4m-60 0a60 60 0 1 0 120 0 60 60 0 1 0-120 0Z" fill="#7D70FF" p-id="5957"></path><path d="M598.5 757m-60 0a60 60 0 1 0 120 0 60 60 0 1 0-120 0Z" fill="#7D6FFF" p-id="5958"></path><path d="M598.5 761.7m-60 0a60 60 0 1 0 120 0 60 60 0 1 0-120 0Z" fill="#7D6EFF" p-id="5959"></path><path d="M598.5 766.3m-60 0a60 60 0 1 0 120 0 60 60 0 1 0-120 0Z" fill="#7E6CFF" p-id="5960"></path><path d="M598.5 771m-60 0a60 60 0 1 0 120 0 60 60 0 1 0-120 0Z" fill="#7E6BFF" p-id="5961"></path><path d="M598.5 775.6m-60 0a60 60 0 1 0 120 0 60 60 0 1 0-120 0Z" fill="#7E6AFF" p-id="5962"></path><path d="M598.5 780.3m-60 0a60 60 0 1 0 120 0 60 60 0 1 0-120 0Z" fill="#7F68FF" p-id="5963"></path><path d="M598.5 784.9m-60 0a60 60 0 1 0 120 0 60 60 0 1 0-120 0Z" fill="#7F67FF" p-id="5964"></path><path d="M598.5 789.5m-60 0a60 60 0 1 0 120 0 60 60 0 1 0-120 0Z" fill="#7F66FF" p-id="5965"></path><path d="M598.5 794.2m-60 0a60 60 0 1 0 120 0 60 60 0 1 0-120 0Z" fill="#7F65FF" p-id="5966"></path><path d="M598.5 798.8m-60 0a60 60 0 1 0 120 0 60 60 0 1 0-120 0Z" fill="#8063FF" p-id="5967"></path><path d="M598.5 803.5m-60 0a60 60 0 1 0 120 0 60 60 0 1 0-120 0Z" fill="#8062FF" p-id="5968"></path><path d="M598.5 808.1m-60 0a60 60 0 1 0 120 0 60 60 0 1 0-120 0Z" fill="#8061FF" p-id="5969"></path><path d="M598.5 812.8m-60 0a60 60 0 1 0 120 0 60 60 0 1 0-120 0Z" fill="#815FFF" p-id="5970"></path><path d="M598.5 817.4m-60 0a60 60 0 1 0 120 0 60 60 0 1 0-120 0Z" fill="#815EFF" p-id="5971"></path><path d="M598.5 822.1m-60 0a60 60 0 1 0 120 0 60 60 0 1 0-120 0Z" fill="#815DFF" p-id="5972"></path><path d="M598.5 826.7m-60 0a60 60 0 1 0 120 0 60 60 0 1 0-120 0Z" fill="#825CFF" p-id="5973"></path><path d="M598.5 831.3m-60 0a60 60 0 1 0 120 0 60 60 0 1 0-120 0Z" fill="#825AFF" p-id="5974"></path><path d="M598.5 836m-60 0a60 60 0 1 0 120 0 60 60 0 1 0-120 0Z" fill="#8259FF" p-id="5975"></path><path d="M598.5 840.6m-60 0a60 60 0 1 0 120 0 60 60 0 1 0-120 0Z" fill="#8358FF" p-id="5976"></path><path d="M598.5 845.3m-60 0a60 60 0 1 0 120 0 60 60 0 1 0-120 0Z" fill="#8356FF" p-id="5977"></path><path d="M598.5 849.9m-60 0a60 60 0 1 0 120 0 60 60 0 1 0-120 0Z" fill="#8355FF" p-id="5978"></path><path d="M598.5 854.6m-60 0a60 60 0 1 0 120 0 60 60 0 1 0-120 0Z" fill="#8454FF" p-id="5979"></path><path d="M598.5 859.2m-60 0a60 60 0 1 0 120 0 60 60 0 1 0-120 0Z" fill="#8453FF" p-id="5980"></path><path d="M598.5 863.9m-60 0a60 60 0 1 0 120 0 60 60 0 1 0-120 0Z" fill="#8451FF" p-id="5981"></path><path d="M598.5 868.5m-60 0a60 60 0 1 0 120 0 60 60 0 1 0-120 0Z" fill="#8550FF" p-id="5982"></path><path d="M598.5 873.2m-60 0a60 60 0 1 0 120 0 60 60 0 1 0-120 0Z" fill="#854FFF" p-id="5983"></path><path d="M598.5 877.8m-60 0a60 60 0 1 0 120 0 60 60 0 1 0-120 0Z" fill="#854DFF" p-id="5984"></path><path d="M598.5 882.4m-60 0a60 60 0 1 0 120 0 60 60 0 1 0-120 0Z" fill="#864CFF" p-id="5985"></path><path d="M598.5 887.1m-60 0a60 60 0 1 0 120 0 60 60 0 1 0-120 0Z" fill="#864BFF" p-id="5986"></path><path d="M598.5 891.7m-60 0a60 60 0 1 0 120 0 60 60 0 1 0-120 0Z" fill="#864AFF" p-id="5987"></path><path d="M598.5 896.4m-60 0a60 60 0 1 0 120 0 60 60 0 1 0-120 0Z" fill="#8748FF" p-id="5988"></path><path d="M598.5 961c33 0 60-27 60-60s-27-60-60-60-60 27-60 60c0 33.1 26.9 60 60 60z" fill="#8747FF" p-id="5989"></path></svg>