<?xml version="1.0" standalone="no"?><!DOCTYPE svg PUBLIC "-//W3C//DTD SVG 1.1//EN" "http://www.w3.org/Graphics/SVG/1.1/DTD/svg11.dtd"><svg t="1688567555349" class="icon" viewBox="0 0 1024 1024" version="1.1" xmlns="http://www.w3.org/2000/svg" p-id="9275" xmlns:xlink="http://www.w3.org/1999/xlink" width="200" height="200"><path d="M512 0a512 512 0 1 0 512 512 512 512 0 0 0-512-512zM370.56 759.04h-64V344.32L229.12 429.44 192 391.04l124.16-128h54.4z m285.44 8.96c-135.68 0-192-135.68-192-256s53.76-256 192-256 192 134.4 192 256-56.96 256-192 256z" fill="#333333" p-id="9276"></path><path d="M656 311.04c-94.08 0-128 101.76-128 200.96s32 201.6 128 201.6 128-102.4 128-201.6-33.92-200.96-128-200.96z" fill="#333333" p-id="9277"></path></svg>