<?xml version="1.0" standalone="no"?><!DOCTYPE svg PUBLIC "-//W3C//DTD SVG 1.1//EN" "http://www.w3.org/Graphics/SVG/1.1/DTD/svg11.dtd"><svg t="1688567491436" class="icon" viewBox="0 0 1024 1024" version="1.1" xmlns="http://www.w3.org/2000/svg" p-id="5444" xmlns:xlink="http://www.w3.org/1999/xlink" width="200" height="200"><path d="M293.7 399.5c33 0 60-27 60-60s-27-60-60-60-60 27-60 60 26.9 60 60 60z" fill="#5100A1" p-id="5445"></path><path d="M293.8 333.5m-60 0a60 60 0 1 0 120 0 60 60 0 1 0-120 0Z" fill="#5102A2" p-id="5446"></path><path d="M294 327.4m-60 0a60 60 0 1 0 120 0 60 60 0 1 0-120 0Z" fill="#5105A3" p-id="5447"></path><path d="M294.5 321.4m-60 0a60 60 0 1 0 120 0 60 60 0 1 0-120 0Z" fill="#5107A4" p-id="5448"></path><path d="M295 315.4m-60 0a60 60 0 1 0 120 0 60 60 0 1 0-120 0Z" fill="#510AA5" p-id="5449"></path><path d="M295.8 309.4m-60 0a60 60 0 1 0 120 0 60 60 0 1 0-120 0Z" fill="#510CA6" p-id="5450"></path><path d="M296.7 303.5m-60 0a60 60 0 1 0 120 0 60 60 0 1 0-120 0Z" fill="#510FA7" p-id="5451"></path><path d="M297.8 297.6m-60 0a60 60 0 1 0 120 0 60 60 0 1 0-120 0Z" fill="#5211A8" p-id="5452"></path><path d="M299 291.7m-60 0a60 60 0 1 0 120 0 60 60 0 1 0-120 0Z" fill="#5214A8" p-id="5453"></path><path d="M300.4 285.8m-60 0a60 60 0 1 0 120 0 60 60 0 1 0-120 0Z" fill="#5216A9" p-id="5454"></path><path d="M302 280m-60 0a60 60 0 1 0 120 0 60 60 0 1 0-120 0Z" fill="#5219AA" p-id="5455"></path><path d="M303.7 274.2m-60 0a60 60 0 1 0 120 0 60 60 0 1 0-120 0Z" fill="#521BAB" p-id="5456"></path><path d="M305.6 268.5m-60 0a60 60 0 1 0 120 0 60 60 0 1 0-120 0Z" fill="#521EAC" p-id="5457"></path><path d="M307.7 262.8m-60 0a60 60 0 1 0 120 0 60 60 0 1 0-120 0Z" fill="#5220AD" p-id="5458"></path><path d="M309.9 257.2m-60 0a60 60 0 1 0 120 0 60 60 0 1 0-120 0Z" fill="#5223AE" p-id="5459"></path><path d="M312.3 251.7m-60 0a60 60 0 1 0 120 0 60 60 0 1 0-120 0Z" fill="#5225AF" p-id="5460"></path><path d="M314.7 246.2m-60 0a60 60 0 1 0 120 0 60 60 0 1 0-120 0Z" fill="#5228B0" p-id="5461"></path><path d="M317.5 240.8m-60 0a60 60 0 1 0 120 0 60 60 0 1 0-120 0Z" fill="#522AB1" p-id="5462"></path><path d="M320.2 235.4m-60 0a60 60 0 1 0 120 0 60 60 0 1 0-120 0Z" fill="#522DB2" p-id="5463"></path><path d="M323.2 230.2m-60 0a60 60 0 1 0 120 0 60 60 0 1 0-120 0Z" fill="#532FB3" p-id="5464"></path><path d="M326.3 225m-60 0a60 60 0 1 0 120 0 60 60 0 1 0-120 0Z" fill="#5332B4" p-id="5465"></path><path d="M329.6 220m-60 0a60 60 0 1 0 120 0 60 60 0 1 0-120 0Z" fill="#5334B5" p-id="5466"></path><path d="M333 215m-60 0a60 60 0 1 0 120 0 60 60 0 1 0-120 0Z" fill="#5337B5" p-id="5467"></path><path d="M336.5 210.1m-60 0a60 60 0 1 0 120 0 60 60 0 1 0-120 0Z" fill="#5339B6" p-id="5468"></path><path d="M340.2 205.3m-60 0a60 60 0 1 0 120 0 60 60 0 1 0-120 0Z" fill="#533CB7" p-id="5469"></path><path d="M344 200.6m-60 0a60 60 0 1 0 120 0 60 60 0 1 0-120 0Z" fill="#533EB8" p-id="5470"></path><path d="M347.9 196.1m-60 0a60 60 0 1 0 120 0 60 60 0 1 0-120 0Z" fill="#5341B9" p-id="5471"></path><path d="M352 191.6m-60 0a60 60 0 1 0 120 0 60 60 0 1 0-120 0Z" fill="#5343BA" p-id="5472"></path><path d="M356.1 187.2m-60 0a60 60 0 1 0 120 0 60 60 0 1 0-120 0Z" fill="#5346BB" p-id="5473"></path><path d="M360.4 183m-60 0a60 60 0 1 0 120 0 60 60 0 1 0-120 0Z" fill="#5348BC" p-id="5474"></path><path d="M364.8 178.9m-60 0a60 60 0 1 0 120 0 60 60 0 1 0-120 0Z" fill="#534BBD" p-id="5475"></path><path d="M369.4 174.9m-60 0a60 60 0 1 0 120 0 60 60 0 1 0-120 0Z" fill="#534DBE" p-id="5476"></path><path d="M374 171m-60 0a60 60 0 1 0 120 0 60 60 0 1 0-120 0Z" fill="#5450BF" p-id="5477"></path><path d="M378.7 167.3m-60 0a60 60 0 1 0 120 0 60 60 0 1 0-120 0Z" fill="#5452C0" p-id="5478"></path><path d="M383.5 163.7m-60 0a60 60 0 1 0 120 0 60 60 0 1 0-120 0Z" fill="#5455C1" p-id="5479"></path><path d="M388.5 160.2m-60 0a60 60 0 1 0 120 0 60 60 0 1 0-120 0Z" fill="#5457C2" p-id="5480"></path><path d="M393.5 156.9m-60 0a60 60 0 1 0 120 0 60 60 0 1 0-120 0Z" fill="#545AC3" p-id="5481"></path><path d="M398.6 153.7m-60 0a60 60 0 1 0 120 0 60 60 0 1 0-120 0Z" fill="#545CC3" p-id="5482"></path><path d="M403.8 150.7m-60 0a60 60 0 1 0 120 0 60 60 0 1 0-120 0Z" fill="#545FC4" p-id="5483"></path><path d="M409.1 147.8m-60 0a60 60 0 1 0 120 0 60 60 0 1 0-120 0Z" fill="#5461C5" p-id="5484"></path><path d="M414.5 145m-60 0a60 60 0 1 0 120 0 60 60 0 1 0-120 0Z" fill="#5464C6" p-id="5485"></path><path d="M419.9 142.4m-60 0a60 60 0 1 0 120 0 60 60 0 1 0-120 0Z" fill="#5466C7" p-id="5486"></path><path d="M425.4 139.9m-60 0a60 60 0 1 0 120 0 60 60 0 1 0-120 0Z" fill="#5469C8" p-id="5487"></path><path d="M431 137.7m-60 0a60 60 0 1 0 120 0 60 60 0 1 0-120 0Z" fill="#546BC9" p-id="5488"></path><path d="M436.6 135.5m-60 0a60 60 0 1 0 120 0 60 60 0 1 0-120 0Z" fill="#546ECA" p-id="5489"></path><path d="M442.3 133.6m-60 0a60 60 0 1 0 120 0 60 60 0 1 0-120 0Z" fill="#5570CB" p-id="5490"></path><path d="M448.1 131.7m-60 0a60 60 0 1 0 120 0 60 60 0 1 0-120 0Z" fill="#5573CC" p-id="5491"></path><path d="M453.9 130.1m-60 0a60 60 0 1 0 120 0 60 60 0 1 0-120 0Z" fill="#5575CD" p-id="5492"></path><path d="M459.7 128.6m-60 0a60 60 0 1 0 120 0 60 60 0 1 0-120 0Z" fill="#5578CE" p-id="5493"></path><path d="M465.6 127.3m-60 0a60 60 0 1 0 120 0 60 60 0 1 0-120 0Z" fill="#557ACF" p-id="5494"></path><path d="M471.5 126.1m-60 0a60 60 0 1 0 120 0 60 60 0 1 0-120 0Z" fill="#557DD0" p-id="5495"></path><path d="M477.4 125.1m-60 0a60 60 0 1 0 120 0 60 60 0 1 0-120 0Z" fill="#557FD0" p-id="5496"></path><path d="M483.4 124.3m-60 0a60 60 0 1 0 120 0 60 60 0 1 0-120 0Z" fill="#5582D1" p-id="5497"></path><path d="M489.4 123.6m-60 0a60 60 0 1 0 120 0 60 60 0 1 0-120 0Z" fill="#5584D2" p-id="5498"></path><path d="M495.4 123.1m-60 0a60 60 0 1 0 120 0 60 60 0 1 0-120 0Z" fill="#5587D3" p-id="5499"></path><path d="M501.4 122.8m-60 0a60 60 0 1 0 120 0 60 60 0 1 0-120 0Z" fill="#5589D4" p-id="5500"></path><path d="M507.5 122.6m-60 0a60 60 0 1 0 120 0 60 60 0 1 0-120 0Z" fill="#558CD5" p-id="5501"></path><path d="M513.5 122.6m-60 0a60 60 0 1 0 120 0 60 60 0 1 0-120 0Z" fill="#568ED6" p-id="5502"></path><path d="M519.5 122.8m-60 0a60 60 0 1 0 120 0 60 60 0 1 0-120 0Z" fill="#5691D7" p-id="5503"></path><path d="M525.5 123.1m-60 0a60 60 0 1 0 120 0 60 60 0 1 0-120 0Z" fill="#5693D8" p-id="5504"></path><path d="M531.5 123.6m-60 0a60 60 0 1 0 120 0 60 60 0 1 0-120 0Z" fill="#5696D9" p-id="5505"></path><path d="M537.5 124.3m-60 0a60 60 0 1 0 120 0 60 60 0 1 0-120 0Z" fill="#5698DA" p-id="5506"></path><path d="M543.5 125m-60 0a60 60 0 1 0 120 0 60 60 0 1 0-120 0Z" fill="#569BDB" p-id="5507"></path><path d="M549.4 126.1m-60 0a60 60 0 1 0 120 0 60 60 0 1 0-120 0Z" fill="#569DDC" p-id="5508"></path><path d="M555.4 127.2m-60 0a60 60 0 1 0 120 0 60 60 0 1 0-120 0Z" fill="#56A0DD" p-id="5509"></path><path d="M561.2 128.5m-60 0a60 60 0 1 0 120 0 60 60 0 1 0-120 0Z" fill="#56A2DD" p-id="5510"></path><path d="M567.1 130m-60 0a60 60 0 1 0 120 0 60 60 0 1 0-120 0Z" fill="#56A5DE" p-id="5511"></path><path d="M572.9 131.6m-60 0a60 60 0 1 0 120 0 60 60 0 1 0-120 0Z" fill="#56A7DF" p-id="5512"></path><path d="M578.6 133.5m-60 0a60 60 0 1 0 120 0 60 60 0 1 0-120 0Z" fill="#56AAE0" p-id="5513"></path><path d="M584.3 135.4m-60 0a60 60 0 1 0 120 0 60 60 0 1 0-120 0Z" fill="#56ACE1" p-id="5514"></path><path d="M590 137.6m-60 0a60 60 0 1 0 120 0 60 60 0 1 0-120 0Z" fill="#57AFE2" p-id="5515"></path><path d="M595.6 139.8m-60 0a60 60 0 1 0 120 0 60 60 0 1 0-120 0Z" fill="#57B1E3" p-id="5516"></path><path d="M601.1 142.3m-60 0a60 60 0 1 0 120 0 60 60 0 1 0-120 0Z" fill="#57B4E4" p-id="5517"></path><path d="M606.5 144.9m-60 0a60 60 0 1 0 120 0 60 60 0 1 0-120 0Z" fill="#57B6E5" p-id="5518"></path><path d="M611.9 147.6m-60 0a60 60 0 1 0 120 0 60 60 0 1 0-120 0Z" fill="#57B9E6" p-id="5519"></path><path d="M617.2 150.5m-60 0a60 60 0 1 0 120 0 60 60 0 1 0-120 0Z" fill="#57BBE7" p-id="5520"></path><path d="M622.4 153.5m-60 0a60 60 0 1 0 120 0 60 60 0 1 0-120 0Z" fill="#57BEE8" p-id="5521"></path><path d="M627.5 156.7m-60 0a60 60 0 1 0 120 0 60 60 0 1 0-120 0Z" fill="#57C0E9" p-id="5522"></path><path d="M632.5 160m-60 0a60 60 0 1 0 120 0 60 60 0 1 0-120 0Z" fill="#57C3EA" p-id="5523"></path><path d="M637.5 163.5m-60 0a60 60 0 1 0 120 0 60 60 0 1 0-120 0Z" fill="#57C5EB" p-id="5524"></path><path d="M642.3 167.1m-60 0a60 60 0 1 0 120 0 60 60 0 1 0-120 0Z" fill="#57C8EB" p-id="5525"></path><path d="M647 170.8m-60 0a60 60 0 1 0 120 0 60 60 0 1 0-120 0Z" fill="#57CAEC" p-id="5526"></path><path d="M651.7 174.7m-60 0a60 60 0 1 0 120 0 60 60 0 1 0-120 0Z" fill="#57CDED" p-id="5527"></path><path d="M656.2 178.6m-60 0a60 60 0 1 0 120 0 60 60 0 1 0-120 0Z" fill="#58CFEE" p-id="5528"></path><path d="M660.6 182.8m-60 0a60 60 0 1 0 120 0 60 60 0 1 0-120 0Z" fill="#58D2EF" p-id="5529"></path><path d="M664.9 187m-60 0a60 60 0 1 0 120 0 60 60 0 1 0-120 0Z" fill="#58D4F0" p-id="5530"></path><path d="M669.1 191.4m-60 0a60 60 0 1 0 120 0 60 60 0 1 0-120 0Z" fill="#58D7F1" p-id="5531"></path><path d="M673.1 195.8m-60 0a60 60 0 1 0 120 0 60 60 0 1 0-120 0Z" fill="#58D9F2" p-id="5532"></path><path d="M677.1 200.4m-60 0a60 60 0 1 0 120 0 60 60 0 1 0-120 0Z" fill="#58DCF3" p-id="5533"></path><path d="M680.9 205.1m-60 0a60 60 0 1 0 120 0 60 60 0 1 0-120 0Z" fill="#58DEF4" p-id="5534"></path><path d="M684.6 209.8m-60 0a60 60 0 1 0 120 0 60 60 0 1 0-120 0Z" fill="#58E1F5" p-id="5535"></path><path d="M688.1 214.7m-60 0a60 60 0 1 0 120 0 60 60 0 1 0-120 0Z" fill="#58E3F6" p-id="5536"></path><path d="M691.5 219.7m-60 0a60 60 0 1 0 120 0 60 60 0 1 0-120 0Z" fill="#58E6F7" p-id="5537"></path><path d="M694.8 224.8m-60 0a60 60 0 1 0 120 0 60 60 0 1 0-120 0Z" fill="#58E8F8" p-id="5538"></path><path d="M697.9 229.9m-60 0a60 60 0 1 0 120 0 60 60 0 1 0-120 0Z" fill="#58EBF8" p-id="5539"></path><path d="M700.9 235.1m-60 0a60 60 0 1 0 120 0 60 60 0 1 0-120 0Z" fill="#59EDF9" p-id="5540"></path><path d="M703.7 240.5m-60 0a60 60 0 1 0 120 0 60 60 0 1 0-120 0Z" fill="#59F0FA" p-id="5541"></path><path d="M706.4 245.9m-60 0a60 60 0 1 0 120 0 60 60 0 1 0-120 0Z" fill="#59F2FB" p-id="5542"></path><path d="M708.9 251.4m-60 0a60 60 0 1 0 120 0 60 60 0 1 0-120 0Z" fill="#59F5FC" p-id="5543"></path><path d="M711.3 256.9m-60 0a60 60 0 1 0 120 0 60 60 0 1 0-120 0Z" fill="#59F7FD" p-id="5544"></path><path d="M713.5 262.5m-60 0a60 60 0 1 0 120 0 60 60 0 1 0-120 0Z" fill="#59FAFE" p-id="5545"></path><path d="M715.5 328.2c33 0 60-27 60-60s-27-60-60-60-60 27-60 60 27 60 60 60z" fill="#59FCFF" p-id="5546"></path><path d="M719.1 279.5m-60 0a60 60 0 1 0 120 0 60 60 0 1 0-120 0Z" fill="#59FAFF" p-id="5547"></path><path d="M722.1 291m-60 0a60 60 0 1 0 120 0 60 60 0 1 0-120 0Z" fill="#5AF8FF" p-id="5548"></path><path d="M724.4 302.7m-60 0a60 60 0 1 0 120 0 60 60 0 1 0-120 0Z" fill="#5AF7FF" p-id="5549"></path><path d="M726.1 314.5m-60 0a60 60 0 1 0 120 0 60 60 0 1 0-120 0Z" fill="#5BF5FF" p-id="5550"></path><path d="M727.2 326.3m-60 0a60 60 0 1 0 120 0 60 60 0 1 0-120 0Z" fill="#5BF3FF" p-id="5551"></path><path d="M727.6 338.2m-60 0a60 60 0 1 0 120 0 60 60 0 1 0-120 0Z" fill="#5CF1FF" p-id="5552"></path><path d="M727.1 350.1m-60 0a60 60 0 1 0 120 0 60 60 0 1 0-120 0Z" fill="#5CEFFF" p-id="5553"></path><path d="M725.9 361.9m-60 0a60 60 0 1 0 120 0 60 60 0 1 0-120 0Z" fill="#5DEEFF" p-id="5554"></path><path d="M724.2 373.7m-60 0a60 60 0 1 0 120 0 60 60 0 1 0-120 0Z" fill="#5DECFF" p-id="5555"></path><path d="M721.6 385.3m-60 0a60 60 0 1 0 120 0 60 60 0 1 0-120 0Z" fill="#5EEAFF" p-id="5556"></path><path d="M718.5 396.8m-60 0a60 60 0 1 0 120 0 60 60 0 1 0-120 0Z" fill="#5EE8FF" p-id="5557"></path><path d="M715.1 408.2m-60 0a60 60 0 1 0 120 0 60 60 0 1 0-120 0Z" fill="#5EE6FF" p-id="5558"></path><path d="M711.1 419.4m-60 0a60 60 0 1 0 120 0 60 60 0 1 0-120 0Z" fill="#5FE5FF" p-id="5559"></path><path d="M706.9 430.5m-60 0a60 60 0 1 0 120 0 60 60 0 1 0-120 0Z" fill="#5FE3FF" p-id="5560"></path><path d="M702.2 441.5m-60 0a60 60 0 1 0 120 0 60 60 0 1 0-120 0Z" fill="#60E1FF" p-id="5561"></path><path d="M697.3 452.3m-60 0a60 60 0 1 0 120 0 60 60 0 1 0-120 0Z" fill="#60DFFF" p-id="5562"></path><path d="M692.2 463m-60 0a60 60 0 1 0 120 0 60 60 0 1 0-120 0Z" fill="#61DEFF" p-id="5563"></path><path d="M686.8 473.6m-60 0a60 60 0 1 0 120 0 60 60 0 1 0-120 0Z" fill="#61DCFF" p-id="5564"></path><path d="M681.3 484.2m-60 0a60 60 0 1 0 120 0 60 60 0 1 0-120 0Z" fill="#62DAFF" p-id="5565"></path><path d="M675.4 494.5m-60 0a60 60 0 1 0 120 0 60 60 0 1 0-120 0Z" fill="#62D8FF" p-id="5566"></path><path d="M669.5 504.8m-60 0a60 60 0 1 0 120 0 60 60 0 1 0-120 0Z" fill="#63D6FF" p-id="5567"></path><path d="M663.3 515m-60 0a60 60 0 1 0 120 0 60 60 0 1 0-120 0Z" fill="#63D5FF" p-id="5568"></path><path d="M657.1 525.1m-60 0a60 60 0 1 0 120 0 60 60 0 1 0-120 0Z" fill="#63D3FF" p-id="5569"></path><path d="M650.6 535.1m-60 0a60 60 0 1 0 120 0 60 60 0 1 0-120 0Z" fill="#64D1FF" p-id="5570"></path><path d="M644.1 545.1m-60 0a60 60 0 1 0 120 0 60 60 0 1 0-120 0Z" fill="#64CFFF" p-id="5571"></path><path d="M637.4 554.9m-60 0a60 60 0 1 0 120 0 60 60 0 1 0-120 0Z" fill="#65CDFF" p-id="5572"></path><path d="M630.6 564.7m-60 0a60 60 0 1 0 120 0 60 60 0 1 0-120 0Z" fill="#65CCFF" p-id="5573"></path><path d="M623.7 574.4m-60 0a60 60 0 1 0 120 0 60 60 0 1 0-120 0Z" fill="#66CAFF" p-id="5574"></path><path d="M616.7 584m-60 0a60 60 0 1 0 120 0 60 60 0 1 0-120 0Z" fill="#66C8FF" p-id="5575"></path><path d="M609.6 593.6m-60 0a60 60 0 1 0 120 0 60 60 0 1 0-120 0Z" fill="#67C6FF" p-id="5576"></path><path d="M602.5 603.1m-60 0a60 60 0 1 0 120 0 60 60 0 1 0-120 0Z" fill="#67C4FF" p-id="5577"></path><path d="M595.2 612.5m-60 0a60 60 0 1 0 120 0 60 60 0 1 0-120 0Z" fill="#68C3FF" p-id="5578"></path><path d="M587.8 621.8m-60 0a60 60 0 1 0 120 0 60 60 0 1 0-120 0Z" fill="#68C1FF" p-id="5579"></path><path d="M580.4 631.1m-60 0a60 60 0 1 0 120 0 60 60 0 1 0-120 0Z" fill="#68BFFF" p-id="5580"></path><path d="M572.9 640.4m-60 0a60 60 0 1 0 120 0 60 60 0 1 0-120 0Z" fill="#69BDFF" p-id="5581"></path><path d="M565.4 649.6m-60 0a60 60 0 1 0 120 0 60 60 0 1 0-120 0Z" fill="#69BBFF" p-id="5582"></path><path d="M557.7 658.7m-60 0a60 60 0 1 0 120 0 60 60 0 1 0-120 0Z" fill="#6ABAFF" p-id="5583"></path><path d="M550.1 667.8m-60 0a60 60 0 1 0 120 0 60 60 0 1 0-120 0Z" fill="#6AB8FF" p-id="5584"></path><path d="M542.3 676.8m-60 0a60 60 0 1 0 120 0 60 60 0 1 0-120 0Z" fill="#6BB6FF" p-id="5585"></path><path d="M534.5 685.8m-60 0a60 60 0 1 0 120 0 60 60 0 1 0-120 0Z" fill="#6BB4FF" p-id="5586"></path><path d="M526.6 694.7m-60 0a60 60 0 1 0 120 0 60 60 0 1 0-120 0Z" fill="#6CB3FF" p-id="5587"></path><path d="M518.7 703.6m-60 0a60 60 0 1 0 120 0 60 60 0 1 0-120 0Z" fill="#6CB1FF" p-id="5588"></path><path d="M510.7 712.4m-60 0a60 60 0 1 0 120 0 60 60 0 1 0-120 0Z" fill="#6DAFFF" p-id="5589"></path><path d="M502.7 721.2m-60 0a60 60 0 1 0 120 0 60 60 0 1 0-120 0Z" fill="#6DADFF" p-id="5590"></path><path d="M494.6 729.9m-60 0a60 60 0 1 0 120 0 60 60 0 1 0-120 0Z" fill="#6DABFF" p-id="5591"></path><path d="M486.5 738.6m-60 0a60 60 0 1 0 120 0 60 60 0 1 0-120 0Z" fill="#6EAAFF" p-id="5592"></path><path d="M478.3 747.2m-60 0a60 60 0 1 0 120 0 60 60 0 1 0-120 0Z" fill="#6EA8FF" p-id="5593"></path><path d="M470 755.8m-60 0a60 60 0 1 0 120 0 60 60 0 1 0-120 0Z" fill="#6FA6FF" p-id="5594"></path><path d="M461.8 764.4m-60 0a60 60 0 1 0 120 0 60 60 0 1 0-120 0Z" fill="#6FA4FF" p-id="5595"></path><path d="M453.4 772.9m-60 0a60 60 0 1 0 120 0 60 60 0 1 0-120 0Z" fill="#70A2FF" p-id="5596"></path><path d="M445.1 781.3m-60 0a60 60 0 1 0 120 0 60 60 0 1 0-120 0Z" fill="#70A1FF" p-id="5597"></path><path d="M436.6 789.7m-60 0a60 60 0 1 0 120 0 60 60 0 1 0-120 0Z" fill="#719FFF" p-id="5598"></path><path d="M428.2 798.1m-60 0a60 60 0 1 0 120 0 60 60 0 1 0-120 0Z" fill="#719DFF" p-id="5599"></path><path d="M419.6 806.4m-60 0a60 60 0 1 0 120 0 60 60 0 1 0-120 0Z" fill="#729BFF" p-id="5600"></path><path d="M411.1 814.6m-60 0a60 60 0 1 0 120 0 60 60 0 1 0-120 0Z" fill="#7299FF" p-id="5601"></path><path d="M402.5 822.8m-60 0a60 60 0 1 0 120 0 60 60 0 1 0-120 0Z" fill="#7398FF" p-id="5602"></path><path d="M393.8 831m-60 0a60 60 0 1 0 120 0 60 60 0 1 0-120 0Z" fill="#7396FF" p-id="5603"></path><path d="M385.1 839.1m-60 0a60 60 0 1 0 120 0 60 60 0 1 0-120 0Z" fill="#7394FF" p-id="5604"></path><path d="M376.3 847.1m-60 0a60 60 0 1 0 120 0 60 60 0 1 0-120 0Z" fill="#7492FF" p-id="5605"></path><path d="M367.5 855.2m-60 0a60 60 0 1 0 120 0 60 60 0 1 0-120 0Z" fill="#7490FF" p-id="5606"></path><path d="M358.6 863.1m-60 0a60 60 0 1 0 120 0 60 60 0 1 0-120 0Z" fill="#758FFF" p-id="5607"></path><path d="M349.7 870.9m-60 0a60 60 0 1 0 120 0 60 60 0 1 0-120 0Z" fill="#758DFF" p-id="5608"></path><path d="M340.7 878.7m-60 0a60 60 0 1 0 120 0 60 60 0 1 0-120 0Z" fill="#768BFF" p-id="5609"></path><path d="M331.7 886.5m-60 0a60 60 0 1 0 120 0 60 60 0 1 0-120 0Z" fill="#7689FF" p-id="5610"></path><path d="M322.5 894.1m-60 0a60 60 0 1 0 120 0 60 60 0 1 0-120 0Z" fill="#7788FF" p-id="5611"></path><path d="M314 901.4m-60 0a60 60 0 1 0 120 0 60 60 0 1 0-120 0Z" fill="#7786FF" p-id="5612"></path><path d="M325.9 901.4m-60 0a60 60 0 1 0 120 0 60 60 0 1 0-120 0Z" fill="#7884FF" p-id="5613"></path><path d="M337.8 901.4m-60 0a60 60 0 1 0 120 0 60 60 0 1 0-120 0Z" fill="#7882FF" p-id="5614"></path><path d="M349.7 901.4m-60 0a60 60 0 1 0 120 0 60 60 0 1 0-120 0Z" fill="#7880FF" p-id="5615"></path><path d="M361.6 901.4m-60 0a60 60 0 1 0 120 0 60 60 0 1 0-120 0Z" fill="#797FFF" p-id="5616"></path><path d="M373.5 901.4m-60 0a60 60 0 1 0 120 0 60 60 0 1 0-120 0Z" fill="#797DFF" p-id="5617"></path><path d="M385.4 901.4m-60 0a60 60 0 1 0 120 0 60 60 0 1 0-120 0Z" fill="#7A7BFF" p-id="5618"></path><path d="M397.3 901.4m-60 0a60 60 0 1 0 120 0 60 60 0 1 0-120 0Z" fill="#7A79FF" p-id="5619"></path><path d="M409.2 901.4m-60 0a60 60 0 1 0 120 0 60 60 0 1 0-120 0Z" fill="#7B77FF" p-id="5620"></path><path d="M421.1 901.4m-60 0a60 60 0 1 0 120 0 60 60 0 1 0-120 0Z" fill="#7B76FF" p-id="5621"></path><path d="M433 901.4m-60 0a60 60 0 1 0 120 0 60 60 0 1 0-120 0Z" fill="#7C74FF" p-id="5622"></path><path d="M444.9 901.4m-60 0a60 60 0 1 0 120 0 60 60 0 1 0-120 0Z" fill="#7C72FF" p-id="5623"></path><path d="M456.8 901.4m-60 0a60 60 0 1 0 120 0 60 60 0 1 0-120 0Z" fill="#7D70FF" p-id="5624"></path><path d="M468.7 901.4m-60 0a60 60 0 1 0 120 0 60 60 0 1 0-120 0Z" fill="#7D6EFF" p-id="5625"></path><path d="M480.6 901.4m-60 0a60 60 0 1 0 120 0 60 60 0 1 0-120 0Z" fill="#7D6DFF" p-id="5626"></path><path d="M492.5 901.4m-60 0a60 60 0 1 0 120 0 60 60 0 1 0-120 0Z" fill="#7E6BFF" p-id="5627"></path><path d="M504.4 901.4m-60 0a60 60 0 1 0 120 0 60 60 0 1 0-120 0Z" fill="#7E69FF" p-id="5628"></path><path d="M516.3 901.4m-60 0a60 60 0 1 0 120 0 60 60 0 1 0-120 0Z" fill="#7F67FF" p-id="5629"></path><path d="M528.2 901.4m-60 0a60 60 0 1 0 120 0 60 60 0 1 0-120 0Z" fill="#7F65FF" p-id="5630"></path><path d="M540.1 901.4m-60 0a60 60 0 1 0 120 0 60 60 0 1 0-120 0Z" fill="#8064FF" p-id="5631"></path><path d="M552 901.4m-60 0a60 60 0 1 0 120 0 60 60 0 1 0-120 0Z" fill="#8062FF" p-id="5632"></path><path d="M563.9 901.4m-60 0a60 60 0 1 0 120 0 60 60 0 1 0-120 0Z" fill="#8160FF" p-id="5633"></path><path d="M575.7 901.4m-60 0a60 60 0 1 0 120 0 60 60 0 1 0-120 0Z" fill="#815EFF" p-id="5634"></path><path d="M587.6 901.4m-60 0a60 60 0 1 0 120 0 60 60 0 1 0-120 0Z" fill="#825DFF" p-id="5635"></path><path d="M599.5 901.4m-60 0a60 60 0 1 0 120 0 60 60 0 1 0-120 0Z" fill="#825BFF" p-id="5636"></path><path d="M611.4 901.4m-60 0a60 60 0 1 0 120 0 60 60 0 1 0-120 0Z" fill="#8259FF" p-id="5637"></path><path d="M623.3 901.4m-60 0a60 60 0 1 0 120 0 60 60 0 1 0-120 0Z" fill="#8357FF" p-id="5638"></path><path d="M635.2 901.4m-60 0a60 60 0 1 0 120 0 60 60 0 1 0-120 0Z" fill="#8355FF" p-id="5639"></path><path d="M647.1 901.4m-60 0a60 60 0 1 0 120 0 60 60 0 1 0-120 0Z" fill="#8454FF" p-id="5640"></path><path d="M659 901.4m-60 0a60 60 0 1 0 120 0 60 60 0 1 0-120 0Z" fill="#8452FF" p-id="5641"></path><path d="M670.9 901.4m-60 0a60 60 0 1 0 120 0 60 60 0 1 0-120 0Z" fill="#8550FF" p-id="5642"></path><path d="M682.8 901.4m-60 0a60 60 0 1 0 120 0 60 60 0 1 0-120 0Z" fill="#854EFF" p-id="5643"></path><path d="M694.7 901.4m-60 0a60 60 0 1 0 120 0 60 60 0 1 0-120 0Z" fill="#864CFF" p-id="5644"></path><path d="M706.6 901.4m-60 0a60 60 0 1 0 120 0 60 60 0 1 0-120 0Z" fill="#864BFF" p-id="5645"></path><path d="M718.5 901.4m-60 0a60 60 0 1 0 120 0 60 60 0 1 0-120 0Z" fill="#8749FF" p-id="5646"></path><path d="M730.3 961.4c33 0 60-27 60-60s-27-60-60-60-60 27-60 60 27 60 60 60z" fill="#8747FF" p-id="5647"></path></svg>